<?xml version="1.0" encoding="UTF-8"?>
<svg id="Layer_2" data-name="Layer 2" xmlns="http://www.w3.org/2000/svg" viewBox="0 0 561.94 383">
  <defs>
    <style>
      .cls-1 {
        fill: none;
      }

      .cls-2 {
        fill: #fff;
      }

      .cls-2, .cls-3, .cls-4, .cls-5, .cls-6, .cls-7 {
        isolation: isolate;
      }

      .cls-2, .cls-3, .cls-4, .cls-7 {
        font-family: ArialMT, Arial;
      }

      .cls-2, .cls-4 {
        font-size: 7px;
      }

      .cls-3 {
        font-size: 8.17px;
      }

      .cls-3, .cls-4 {
        fill: #181818;
      }

      .cls-8 {
        letter-spacing: 0em;
      }

      .cls-6 {
        font-family: Arial-BoldMT, Arial;
        font-size: 15.75px;
        font-weight: 700;
      }

      .cls-7 {
        fill: #888;
        font-size: 6.42px;
      }

      .cls-9 {
        letter-spacing: -.11em;
      }

      .cls-10 {
        letter-spacing: -.02em;
      }

      .cls-11 {
        letter-spacing: -.02em;
      }

      .cls-12 {
        fill: #c71e1d;
      }

      .cls-13 {
        fill: #fa6a47;
      }
    </style>
  </defs>
  <g id="ai2html-settings">
    <g>
      <rect class="cls-1" x="139.11" y="141.66" width="422.83" height="241.34"/>
      <g id="_svelte-dw-svg" data-name="  svelte-dw-svg">
        <g id="container-svg_container-body-svg_datawrapper-T2CdC-1gvfeww-svg" data-name="container-svg container-body-svg datawrapper-T2CdC-1gvfeww-svg">
          <g id="container-svg_container-bodyTop-svg_datawrapper-T2CdC-lmtz6e-svg" data-name="container-svg container-bodyTop-svg datawrapper-T2CdC-lmtz6e-svg">
            <g id="container-svg_container-bodyCenter-svg_datawrapper-T2CdC-1fgvipr-svg" data-name="container-svg container-bodyCenter-svg datawrapper-T2CdC-1fgvipr-svg">
              <g id="container-svg_container-header-svg_datawrapper-T2CdC-xp3kt5-svg" data-name="container-svg container-header-svg datawrapper-T2CdC-xp3kt5-svg">
                <g class="cls-5">
                  <text class="cls-6" transform="translate(0 13.51) scale(1.04 1)"><tspan x="0" y="0">Data centers per country as of March 2025</tspan></text>
                </g>
                <g class="cls-5">
                  <text class="cls-3" transform="translate(0 30.42) scale(1.04 1)"><tspan x="0" y="0">The U.S. has more data centers than all other countries combined.</tspan></text>
                </g>
              </g>
              <g id="chart-svg">
                <g class="cls-5">
                  <text class="cls-4" transform="translate(10.27 45.84) scale(1.04 1)"><tspan x="0" y="0">US</tspan></text>
                </g>
                <g class="cls-5">
                  <text class="cls-4" transform="translate(.6 63.68) scale(1.04 1)"><tspan x="0" y="0">US</tspan></text>
                </g>
                <rect class="cls-12" x="49.88" y="55.05" width="311.93" height="11.67"/>
                <g class="cls-5">
                  <text class="cls-4" transform="translate(.6 77.68) scale(1.04 1)"><tspan x="0" y="0">Rest of </tspan><tspan class="cls-10" x="24.12" y="0">W</tspan><tspan class="cls-8" x="30.6" y="0">orld</tspan></text>
                </g>
                <rect class="cls-13" x="49.88" y="69.05" width="225.19" height="11.67"/>
                <g class="cls-5">
                  <text class="cls-4" transform="translate(.6 91.68) scale(1.04 1)"><tspan x="0" y="0">Germany</tspan></text>
                </g>
                <rect class="cls-13" x="49.88" y="83.05" width="30.42" height="11.67"/>
                <g class="cls-5">
                  <text class="cls-4" transform="translate(.6 105.68) scale(1.04 1)"><tspan x="0" y="0">UK</tspan></text>
                </g>
                <rect class="cls-13" x="49.88" y="97.04" width="30.07" height="11.67"/>
                <g class="cls-5">
                  <text class="cls-4" transform="translate(.6 119.67) scale(1.04 1)"><tspan x="0" y="0">China</tspan></text>
                </g>
                <rect class="cls-13" x="49.88" y="111.04" width="25.81" height="11.67"/>
                <g class="cls-5">
                  <text class="cls-4" transform="translate(.6 133.67) scale(1.04 1)"><tspan x="0" y="0">France</tspan></text>
                </g>
                <rect class="cls-13" x="49.88" y="125.04" width="18.52" height="11.67"/>
                <g class="cls-5">
                  <text class="cls-4" transform="translate(.6 147.67) scale(1.04 1)"><tspan x="0" y="0">Australia</tspan></text>
                </g>
                <rect class="cls-13" x="49.88" y="139.04" width="18.06" height="11.67"/>
                <g class="cls-5">
                  <text class="cls-4" transform="translate(.6 161.67) scale(1.04 1)"><tspan x="0" y="0">Netherlands</tspan></text>
                </g>
                <rect class="cls-13" x="49.88" y="153.04" width="17.14" height="11.67"/>
                <g class="cls-5">
                  <text class="cls-4" transform="translate(.6 175.67) scale(1.04 1)"><tspan x="0" y="0">Russia</tspan></text>
                </g>
                <rect class="cls-13" x="49.88" y="167.04" width="14.43" height="11.67"/>
                <g class="cls-5">
                  <text class="cls-4" transform="translate(.6 189.67) scale(1.04 1)"><tspan x="0" y="0">Japan</tspan></text>
                </g>
                <rect class="cls-13" x="49.88" y="181.03" width="12.77" height="11.67"/>
                <g class="cls-5">
                  <text class="cls-4" transform="translate(.6 203.66) scale(1.04 1)"><tspan x="0" y="0">Brazil</tspan></text>
                </g>
                <rect class="cls-13" x="49.88" y="195.03" width="11.27" height="11.67"/>
                <g class="cls-5">
                  <text class="cls-4" transform="translate(.6 217.66) scale(1.04 1)"><tspan x="0" y="0">Italy</tspan></text>
                </g>
                <rect class="cls-13" x="49.88" y="209.03" width="9.66" height="11.67"/>
                <g class="cls-5">
                  <text class="cls-4" transform="translate(.6 231.66) scale(1.04 1)"><tspan x="0" y="0">Spain</tspan></text>
                </g>
                <rect class="cls-13" x="49.88" y="223.03" width="8.23" height="11.67"/>
                <g class="cls-5">
                  <text class="cls-4" transform="translate(.6 245.66) scale(1.04 1)"><tspan x="0" y="0">Hong Kong</tspan></text>
                </g>
                <rect class="cls-13" x="49.88" y="237.03" width="7.02" height="11.67"/>
                <g class="cls-5">
                  <text class="cls-4" transform="translate(.6 259.66) scale(1.04 1)"><tspan x="0" y="0">Switzerland</tspan></text>
                </g>
                <rect class="cls-13" x="49.88" y="251.02" width="6.97" height="11.67"/>
                <g class="cls-5">
                  <text class="cls-4" transform="translate(.6 273.66) scale(1.04 1)"><tspan x="0" y="0">Singapore</tspan></text>
                </g>
                <rect class="cls-13" x="49.88" y="265.02" width="5.7" height="11.67"/>
                <g class="cls-5">
                  <text class="cls-4" transform="translate(.6 287.65) scale(1.04 1)"><tspan x="0" y="0">Malaysia</tspan></text>
                </g>
                <rect class="cls-13" x="49.88" y="279.02" width="3.57" height="11.67"/>
                <g class="cls-5">
                  <text class="cls-4" transform="translate(.6 301.65) scale(1.04 1)"><tspan x="0" y="0">Ireland</tspan></text>
                </g>
                <rect class="cls-13" x="49.88" y="293.02" width="3.17" height="11.67"/>
                <g class="cls-5">
                  <text class="cls-4" transform="translate(.6 315.65) scale(1.04 1)"><tspan x="0" y="0">South Korea</tspan></text>
                </g>
                <rect class="cls-13" x="49.88" y="307.02" width="2.47" height="11.67"/>
                <g class="cls-5">
                  <text class="cls-2" transform="translate(340.66 63.8) scale(1.04 1)"><tspan x="0" y="0">5,426</tspan></text>
                </g>
                <g class="cls-5">
                  <text class="cls-2" transform="translate(253.91 77.8) scale(1.04 1)"><tspan x="0" y="0">3,917</tspan></text>
                </g>
                <g class="cls-5">
                  <text class="cls-2" transform="translate(65.19 91.8) scale(1.04 1)"><tspan x="0" y="0">529</tspan></text>
                </g>
                <g class="cls-5">
                  <text class="cls-2" transform="translate(64.84 105.79) scale(1.04 1)"><tspan x="0" y="0">523</tspan></text>
                </g>
                <g class="cls-5">
                  <text class="cls-2" transform="translate(60.58 119.79) scale(1.04 1)"><tspan x="0" y="0">449</tspan></text>
                </g>
                <g class="cls-5">
                  <text class="cls-2" transform="translate(53.28 133.79) scale(1.04 1)"><tspan x="0" y="0">322</tspan></text>
                </g>
                <g class="cls-5">
                  <text class="cls-4" transform="translate(70.96 147.79) scale(1.04 1)"><tspan x="0" y="0">314</tspan></text>
                </g>
                <g class="cls-5">
                  <text class="cls-4" transform="translate(70.04 161.79) scale(1.04 1)"><tspan x="0" y="0">298</tspan></text>
                </g>
                <g class="cls-5">
                  <text class="cls-4" transform="translate(67.33 175.79) scale(1.04 1)"><tspan x="0" y="0">251</tspan></text>
                </g>
                <g class="cls-5">
                  <text class="cls-4" transform="translate(65.67 189.78) scale(1.04 1)"><tspan x="0" y="0">222</tspan></text>
                </g>
                <g class="cls-5">
                  <text class="cls-4" transform="translate(64.17 203.78) scale(1.04 1)"><tspan x="0" y="0">196</tspan></text>
                </g>
                <g class="cls-5">
                  <text class="cls-4" transform="translate(62.57 217.78) scale(1.04 1)"><tspan x="0" y="0">168</tspan></text>
                </g>
                <g class="cls-5">
                  <text class="cls-4" transform="translate(61.13 231.78) scale(1.04 1)"><tspan x="0" y="0">143</tspan></text>
                </g>
                <g class="cls-5">
                  <text class="cls-4" transform="translate(59.92 245.78) scale(1.04 1)"><tspan x="0" y="0">122</tspan></text>
                </g>
                <g class="cls-5">
                  <text class="cls-4" transform="translate(59.87 259.78) scale(1.04 1)"><tspan x="0" y="0">121</tspan></text>
                </g>
                <g class="cls-5">
                  <text class="cls-4" transform="translate(58.6 273.77) scale(1.04 1)"><tspan x="0" y="0">99</tspan></text>
                </g>
                <g class="cls-5">
                  <text class="cls-4" transform="translate(56.47 287.77) scale(1.04 1)"><tspan x="0" y="0">62</tspan></text>
                </g>
                <g class="cls-5">
                  <text class="cls-4" transform="translate(56.07 301.77) scale(1.04 1)"><tspan x="0" y="0">55</tspan></text>
                </g>
                <g class="cls-5">
                  <text class="cls-4" transform="translate(55.37 315.77) scale(1.04 1)"><tspan x="0" y="0">43</tspan></text>
                </g>
                <rect class="cls-12" y="39.07" width="8.46" height="8.17"/>
              </g>
            </g>
          </g>
          <g id="container-svg_container-footer-svg_datawrapper-T2CdC-1la8dcw-svg" data-name="container-svg container-footer-svg datawrapper-T2CdC-1la8dcw-svg">
            <g class="cls-5">
              <text class="cls-7" transform="translate(0 336.76) scale(1.04 1)"><tspan x="0" y="0">Chart:</tspan></text>
              <text class="cls-7" transform="translate(19.75 336.76) scale(1.04 1)"><tspan x="0" y="0">Lucia de la</tspan><tspan class="cls-11" x="31.03" y="0"> </tspan><tspan class="cls-9" x="32.7" y="0">T</tspan><tspan x="35.91" y="0">orre</tspan></text>
              <text class="cls-7" transform="translate(70.4 336.76) scale(1.04 1)"><tspan x="0" y="0">•</tspan></text>
              <text class="cls-7" transform="translate(74.38 336.76) scale(1.04 1)"><tspan x="0" y="0">Source:</tspan></text>
              <text class="cls-7" transform="translate(98.94 336.76) scale(1.04 1)"><tspan x="0" y="0">Statista/Cloudscene</tspan></text>
              <text class="cls-7" transform="translate(159.69 336.76) scale(1.04 1)"><tspan x="0" y="0">•</tspan></text>
              <text class="cls-7" transform="translate(163.67 336.76) scale(1.04 1)"><tspan x="0" y="0">Created with</tspan></text>
              <text class="cls-7" transform="translate(202.62 336.76) scale(1.04 1)"><tspan x="0" y="0">Datawrapper</tspan></text>
            </g>
          </g>
        </g>
      </g>
    </g>
  </g>
</svg>