<?xml version="1.0" encoding="UTF-8"?>
<svg id="Layer_2" data-name="Layer 2" xmlns="http://www.w3.org/2000/svg" viewBox="0 0 153 323.48">
  <defs>
    <style>
      .cls-1 {
        fill: #888;
        font-size: 5.53px;
      }

      .cls-1, .cls-2, .cls-3, .cls-4, .cls-5, .cls-6 {
        isolation: isolate;
      }

      .cls-1, .cls-4, .cls-5, .cls-6 {
        font-family: ArialMT, Arial;
      }

      .cls-2 {
        font-family: Arial-BoldMT, Arial;
        font-size: 13.58px;
        font-weight: 700;
      }

      .cls-4 {
        fill: #fff;
      }

      .cls-4, .cls-6 {
        font-size: 6.04px;
      }

      .cls-5 {
        font-size: 7.04px;
      }

      .cls-5, .cls-6 {
        fill: #181818;
      }

      .cls-7 {
        letter-spacing: -.11em;
      }

      .cls-8 {
        letter-spacing: -.02em;
      }

      .cls-9 {
        letter-spacing: -.02em;
      }

      .cls-10 {
        fill: #c71e1d;
      }

      .cls-11 {
        fill: #fa6a47;
      }
    </style>
  </defs>
  <g id="ai2html-settings">
    <g id="_svelte-dw-svg" data-name="  svelte-dw-svg">
      <g id="container-svg_container-body-svg_datawrapper-T2CdC-1gvfeww-svg" data-name="container-svg container-body-svg datawrapper-T2CdC-1gvfeww-svg">
        <g id="container-svg_container-bodyTop-svg_datawrapper-T2CdC-lmtz6e-svg" data-name="container-svg container-bodyTop-svg datawrapper-T2CdC-lmtz6e-svg">
          <g id="container-svg_container-bodyCenter-svg_datawrapper-T2CdC-1fgvipr-svg" data-name="container-svg container-bodyCenter-svg datawrapper-T2CdC-1fgvipr-svg">
            <g id="container-svg_container-header-svg_datawrapper-T2CdC-xp3kt5-svg" data-name="container-svg container-header-svg datawrapper-T2CdC-xp3kt5-svg">
              <g class="cls-3">
                <text class="cls-2" transform="translate(0 11.65) scale(.95 1)"><tspan x="0" y="0">Data centers per country</tspan></text>
                <text class="cls-2" transform="translate(0 27.75) scale(.95 1)"><tspan x="0" y="0">as of March 2025</tspan></text>
              </g>
              <g class="cls-3">
                <text class="cls-5" transform="translate(0 42.34) scale(.95 1)"><tspan x="0" y="0">The U.S. has more data centers than all other</tspan></text>
                <text class="cls-5" transform="translate(0 50.9) scale(.95 1)"><tspan x="0" y="0">countries combined.</tspan></text>
              </g>
            </g>
            <g id="chart-svg">
              <g class="cls-3">
                <text class="cls-6" transform="translate(8.15 64.19) scale(.95 1)"><tspan x="0" y="0">US</tspan></text>
              </g>
              <g class="cls-3">
                <text class="cls-6" transform="translate(.48 79.58) scale(.95 1)"><tspan x="0" y="0">US</tspan></text>
              </g>
              <rect class="cls-10" x="39.5" y="72.14" width="113.5" height="10.06"/>
              <g class="cls-3">
                <text class="cls-6" transform="translate(.48 91.66) scale(.95 1)"><tspan x="0" y="0">Rest of </tspan><tspan class="cls-8" x="20.8" y="0">W</tspan><tspan x="26.39" y="0">orld</tspan></text>
              </g>
              <rect class="cls-11" x="39.5" y="84.21" width="81.94" height="10.06"/>
              <g class="cls-3">
                <text class="cls-6" transform="translate(.48 103.73) scale(.95 1)"><tspan x="0" y="0">Germany</tspan></text>
              </g>
              <rect class="cls-11" x="39.5" y="96.29" width="11.07" height="10.06"/>
              <g class="cls-3">
                <text class="cls-6" transform="translate(.48 115.81) scale(.95 1)"><tspan x="0" y="0">UK</tspan></text>
              </g>
              <rect class="cls-11" x="39.5" y="108.36" width="10.94" height="10.06"/>
              <g class="cls-3">
                <text class="cls-6" transform="translate(.48 127.88) scale(.95 1)"><tspan x="0" y="0">China</tspan></text>
              </g>
              <rect class="cls-11" x="39.5" y="120.44" width="9.4" height="10.06"/>
              <g class="cls-3">
                <text class="cls-6" transform="translate(.48 139.96) scale(.95 1)"><tspan x="0" y="0">France</tspan></text>
              </g>
              <rect class="cls-11" x="39.5" y="132.51" width="6.74" height="10.06"/>
              <g class="cls-3">
                <text class="cls-6" transform="translate(.48 152.03) scale(.95 1)"><tspan x="0" y="0">Australia</tspan></text>
              </g>
              <rect class="cls-11" x="39.5" y="144.59" width="6.57" height="10.06"/>
              <g class="cls-3">
                <text class="cls-6" transform="translate(.48 164.11) scale(.95 1)"><tspan x="0" y="0">Netherlands</tspan></text>
              </g>
              <rect class="cls-11" x="39.5" y="156.66" width="6.24" height="10.06"/>
              <g class="cls-3">
                <text class="cls-6" transform="translate(.48 176.18) scale(.95 1)"><tspan x="0" y="0">Russia</tspan></text>
              </g>
              <rect class="cls-11" x="39.5" y="168.74" width="5.25" height="10.06"/>
              <g class="cls-3">
                <text class="cls-6" transform="translate(.48 188.26) scale(.95 1)"><tspan x="0" y="0">Japan</tspan></text>
              </g>
              <rect class="cls-11" x="39.5" y="180.81" width="4.65" height="10.06"/>
              <g class="cls-3">
                <text class="cls-6" transform="translate(.48 200.33) scale(.95 1)"><tspan x="0" y="0">Brazil</tspan></text>
              </g>
              <rect class="cls-11" x="39.5" y="192.89" width="4.11" height="10.06"/>
              <g class="cls-3">
                <text class="cls-6" transform="translate(.48 212.41) scale(.95 1)"><tspan x="0" y="0">Italy</tspan></text>
              </g>
              <rect class="cls-11" x="39.5" y="204.96" width="3.51" height="10.06"/>
              <g class="cls-3">
                <text class="cls-6" transform="translate(.48 224.48) scale(.95 1)"><tspan x="0" y="0">Spain</tspan></text>
              </g>
              <rect class="cls-11" x="39.5" y="217.04" width="3" height="10.06"/>
              <g class="cls-3">
                <text class="cls-6" transform="translate(.48 236.56) scale(.95 1)"><tspan x="0" y="0">Hong Kong</tspan></text>
              </g>
              <rect class="cls-11" x="39.5" y="229.11" width="2.56" height="10.06"/>
              <g class="cls-3">
                <text class="cls-6" transform="translate(.48 248.63) scale(.95 1)"><tspan x="0" y="0">Switzerland</tspan></text>
              </g>
              <rect class="cls-11" x="39.5" y="241.19" width="2.53" height="10.06"/>
              <g class="cls-3">
                <text class="cls-6" transform="translate(.48 260.71) scale(.95 1)"><tspan x="0" y="0">Singapore</tspan></text>
              </g>
              <rect class="cls-11" x="39.5" y="253.26" width="2.08" height="10.06"/>
              <g class="cls-3">
                <text class="cls-6" transform="translate(.48 272.78) scale(.95 1)"><tspan x="0" y="0">Malaysia</tspan></text>
              </g>
              <rect class="cls-11" x="39.5" y="265.34" width="1.3" height="10.06"/>
              <g class="cls-3">
                <text class="cls-6" transform="translate(.48 284.85) scale(.95 1)"><tspan x="0" y="0">Ireland</tspan></text>
              </g>
              <rect class="cls-11" x="39.5" y="277.41" width="1.15" height="10.06"/>
              <g class="cls-3">
                <text class="cls-6" transform="translate(.48 296.93) scale(.95 1)"><tspan x="0" y="0">South Korea</tspan></text>
              </g>
              <rect class="cls-11" x="39.5" y="289.49" width=".91" height="10.06"/>
              <g class="cls-3">
                <text class="cls-4" transform="translate(136.2 79.68) scale(.95 1)"><tspan x="0" y="0">5,426</tspan></text>
              </g>
              <g class="cls-3">
                <text class="cls-4" transform="translate(104.64 91.76) scale(.95 1)"><tspan x="0" y="0">3,917</tspan></text>
              </g>
              <g class="cls-3">
                <text class="cls-6" transform="translate(52.96 103.83) scale(.95 1)"><tspan x="0" y="0">529</tspan></text>
              </g>
              <g class="cls-3">
                <text class="cls-6" transform="translate(52.84 115.91) scale(.95 1)"><tspan x="0" y="0">523</tspan></text>
              </g>
              <g class="cls-3">
                <text class="cls-6" transform="translate(51.29 127.98) scale(.95 1)"><tspan x="0" y="0">449</tspan></text>
              </g>
              <g class="cls-3">
                <text class="cls-6" transform="translate(48.63 140.06) scale(.95 1)"><tspan x="0" y="0">322</tspan></text>
              </g>
              <g class="cls-3">
                <text class="cls-6" transform="translate(48.47 152.13) scale(.95 1)"><tspan x="0" y="0">314</tspan></text>
              </g>
              <g class="cls-3">
                <text class="cls-6" transform="translate(48.13 164.21) scale(.95 1)"><tspan x="0" y="0">298</tspan></text>
              </g>
              <g class="cls-3">
                <text class="cls-6" transform="translate(47.15 176.28) scale(.95 1)"><tspan x="0" y="0">251</tspan></text>
              </g>
              <g class="cls-3">
                <text class="cls-6" transform="translate(46.54 188.36) scale(.95 1)"><tspan x="0" y="0">222</tspan></text>
              </g>
              <g class="cls-3">
                <text class="cls-6" transform="translate(46 200.43) scale(.95 1)"><tspan x="0" y="0">196</tspan></text>
              </g>
              <g class="cls-3">
                <text class="cls-6" transform="translate(45.41 212.51) scale(.95 1)"><tspan x="0" y="0">168</tspan></text>
              </g>
              <g class="cls-3">
                <text class="cls-6" transform="translate(44.89 224.58) scale(.95 1)"><tspan x="0" y="0">143</tspan></text>
              </g>
              <g class="cls-3">
                <text class="cls-6" transform="translate(44.45 236.66) scale(.95 1)"><tspan x="0" y="0">122</tspan></text>
              </g>
              <g class="cls-3">
                <text class="cls-6" transform="translate(44.43 248.73) scale(.95 1)"><tspan x="0" y="0">121</tspan></text>
              </g>
              <g class="cls-3">
                <text class="cls-6" transform="translate(43.97 260.81) scale(.95 1)"><tspan x="0" y="0">99</tspan></text>
              </g>
              <g class="cls-3">
                <text class="cls-6" transform="translate(43.2 272.88) scale(.95 1)"><tspan x="0" y="0">62</tspan></text>
              </g>
              <g class="cls-3">
                <text class="cls-6" transform="translate(43.05 284.96) scale(.95 1)"><tspan x="0" y="0">55</tspan></text>
              </g>
              <g class="cls-3">
                <text class="cls-6" transform="translate(42.8 297.03) scale(.95 1)"><tspan x="0" y="0">43</tspan></text>
              </g>
              <rect class="cls-10" x="0" y="58.36" width="6.72" height="7.04"/>
            </g>
          </g>
        </g>
        <g id="container-svg_container-footer-svg_datawrapper-T2CdC-1la8dcw-svg" data-name="container-svg container-footer-svg datawrapper-T2CdC-1la8dcw-svg">
          <g class="cls-3">
            <text class="cls-1" transform="translate(0 315.14) scale(.95 1)"><tspan x="0" y="0">Chart:</tspan></text>
            <text class="cls-1" transform="translate(15.68 315.14) scale(.95 1)"><tspan x="0" y="0">Lucia de la</tspan><tspan class="cls-9" x="26.77" y="0"> </tspan><tspan class="cls-7" x="28.21" y="0">T</tspan><tspan x="30.97" y="0">orre</tspan></text>
            <text class="cls-1" transform="translate(55.9 315.14) scale(.95 1)"><tspan x="0" y="0">•</tspan></text>
            <text class="cls-1" transform="translate(59.06 315.14) scale(.95 1)"><tspan x="0" y="0">Source:</tspan></text>
            <text class="cls-1" transform="translate(78.56 315.14) scale(.95 1)"><tspan x="0" y="0">Statista/Cloudscene</tspan></text>
            <text class="cls-1" transform="translate(126.8 315.14) scale(.95 1)"><tspan x="0" y="0">•</tspan></text>
            <text class="cls-1" transform="translate(129.96 315.14) scale(.95 1)"><tspan x="0" y="0">Created</tspan></text>
            <text class="cls-1" transform="translate(0 321.68) scale(.95 1)"><tspan x="0" y="0">with</tspan></text>
            <text class="cls-1" transform="translate(10.69 321.68) scale(.95 1)"><tspan x="0" y="0">Datawrapper</tspan></text>
          </g>
        </g>
      </g>
    </g>
  </g>
</svg>