<?xml version="1.0" encoding="UTF-8"?>
<svg id="Layer_2" data-name="Layer 2" xmlns="http://www.w3.org/2000/svg" xmlns:xlink="http://www.w3.org/1999/xlink" viewBox="0 0 541 389">
  <defs>
    <style>
      .cls-1, .cls-2, .cls-3, .cls-4, .cls-5 {
        fill: none;
      }

      .cls-2 {
        stroke: #e7e7e7;
      }

      .cls-6, .cls-7, .cls-8, .cls-9, .cls-10, .cls-11, .cls-12 {
        isolation: isolate;
      }

      .cls-6, .cls-7, .cls-8, .cls-9, .cls-13, .cls-11 {
        font-family: ArialMT, Arial;
      }

      .cls-6, .cls-7, .cls-9 {
        font-size: 10.63px;
      }

      .cls-6, .cls-11 {
        fill: #181818;
      }

      .cls-7 {
        fill: #a2a2a2;
      }

      .cls-8 {
        fill: #888;
        font-size: 9.75px;
      }

      .cls-9 {
        fill: #747474;
      }

      .cls-3 {
        stroke: #fff;
        stroke-width: 4px;
      }

      .cls-3, .cls-4 {
        stroke-linecap: round;
        stroke-linejoin: round;
      }

      .cls-4 {
        stroke: #c71e1d;
        stroke-width: 2px;
      }

      .cls-5 {
        stroke: #181818;
        stroke-linecap: square;
      }

      .cls-13 {
        font-size: 6.95px;
      }

      .cls-14 {
        letter-spacing: -.11em;
      }

      .cls-15 {
        letter-spacing: -.02em;
      }

      .cls-16 {
        letter-spacing: -.02em;
      }

      .cls-17 {
        letter-spacing: -.06em;
      }

      .cls-11 {
        font-size: 12.41px;
      }

      .cls-18 {
        clip-path: url(#clippath);
      }

      .cls-12 {
        font-family: Arial-BoldMT, Arial;
        font-size: 19.49px;
        font-weight: 700;
      }
    </style>
    <clipPath id="clippath">
      <rect class="cls-1" width="541" height="389"/>
    </clipPath>
  </defs>
  <g id="ai2html-settings">
    <g class="cls-18">
      <g id="_svelte-dw-svg" data-name="  svelte-dw-svg">
        <g id="container-svg_container-body-svg_datawrapper-dFiok-1gvfeww-svg" data-name="container-svg container-body-svg datawrapper-dFiok-1gvfeww-svg">
          <g id="container-svg_container-bodyTop-svg_datawrapper-dFiok-lmtz6e-svg" data-name="container-svg container-bodyTop-svg datawrapper-dFiok-lmtz6e-svg">
            <g id="container-svg_container-bodyCenter-svg_datawrapper-dFiok-1fgvipr-svg" data-name="container-svg container-bodyCenter-svg datawrapper-dFiok-1fgvipr-svg">
              <g id="container-svg_container-header-svg_datawrapper-dFiok-xp3kt5-svg" data-name="container-svg container-header-svg datawrapper-dFiok-xp3kt5-svg">
                <g class="cls-10">
                  <text class="cls-12" transform="translate(0 19.49) scale(1.02 1)"><tspan x="0" y="0">The growing energy demand of U.S. Data Centers</tspan></text>
                </g>
                <g class="cls-10">
                  <text class="cls-11" transform="translate(0 43.42) scale(1.02 1)"><tspan x="0" y="0">Fuelled by</tspan><tspan class="cls-17" x="57.24" y="0"> </tspan><tspan x="60" y="0">AI, data center energy use in the United States is forecast to quadruple by 2030.</tspan></text>
                </g>
              </g>
              <g id="chart-svg">
                <g id="svg-main-svg">
                  <g id="group-svg">
                    <g id="y-grid-svg">
                      <g id="y-grid-lines-svg_grid-y-svg_datawrapper-dFiok-1mqm0ow-svg" data-name="y-grid-lines-svg grid-y-svg datawrapper-dFiok-1mqm0ow-svg">
                        <line class="cls-2" x1="23.87" y1="63.05" x2="518.46" y2="63.05"/>
                        <line class="cls-2" x1="23.87" y1="109.54" x2="518.46" y2="109.54"/>
                        <line class="cls-2" x1="23.87" y1="156.04" x2="518.46" y2="156.04"/>
                        <path class="cls-2" d="M249.27,202.54c90.22.19,179.19.19,269.18,0"/>
                        <path class="cls-2" d="M23.87,202.54c73.29.19,145.87.19,219.29,0"/>
                        <line class="cls-2" x1="23.87" y1="249.04" x2="518.46" y2="249.04"/>
                        <line class="cls-2" x1="23.87" y1="295.54" x2="518.46" y2="295.54"/>
                      </g>
                    </g>
                    <g id="lines-svg">
                      <g id="TWh-svg">
                        <g id="TWh-svg-2" data-name="TWh-svg">
                          <path class="cls-3" d="M502.81,66.36c2.62-1.55,4.97-3.56,6.63-6.11"/>
                          <path class="cls-3" d="M486.9,73.11c2.97-1.32,6.06-2.36,9.09-3.54"/>
                          <path class="cls-3" d="M473.41,79.99c2.2-1.24,4.43-2.45,6.68-3.61"/>
                          <path class="cls-3" d="M462.2,86.59c1.53-.92,3.06-1.84,4.59-2.75"/>
                          <path class="cls-3" d="M450.33,93.69c1.77-1.03,3.53-2.08,5.28-3.14"/>
                          <path class="cls-3" d="M438.68,100.13c1.67-.86,3.32-1.74,4.97-2.64"/>
                          <path class="cls-3" d="M427.03,106.57c1.74-.92,3.48-1.86,5.2-2.81"/>
                          <path class="cls-3" d="M413.73,113.47c2.11-1.08,4.21-2.16,6.32-3.25"/>
                          <path class="cls-3" d="M401.08,119.96c2.1-1.09,4.21-2.17,6.32-3.25"/>
                          <path class="cls-3" d="M389.67,125.92c1.66-.88,3.32-1.75,4.98-2.62"/>
                          <path class="cls-3" d="M376.94,132.84c2-1.11,4-2.22,6.02-3.31"/>
                          <path class="cls-3" d="M364.91,138.74c1.9-.92,3.79-1.84,5.68-2.77"/>
                          <path class="cls-3" d="M351.42,145.37c2.12-1.06,4.25-2.12,6.38-3.16"/>
                          <path class="cls-3" d="M337.76,152.29c2.39-1.23,4.78-2.45,7.18-3.66"/>
                          <path class="cls-3" d="M324.27,159.27c2.36-1.23,4.73-2.45,7.1-3.68"/>
                          <path class="cls-3" d="M311.75,165.8c2.08-1.09,4.17-2.18,6.26-3.27"/>
                          <path class="cls-3" d="M301.1,171.9c1.31-.79,2.63-1.57,3.96-2.33"/>
                          <path class="cls-3" d="M289.01,178.37c1.66-.89,3.32-1.78,4.97-2.67"/>
                          <path class="cls-3" d="M275.81,185.5c2.08-1.13,4.17-2.26,6.26-3.38"/>
                          <path class="cls-3" d="M261.68,193.28c2.59-1.43,5.18-2.86,7.77-4.29"/>
                          <path class="cls-3" d="M249.43,200.09c2.04-1.14,4.08-2.27,6.12-3.41"/>
                          <path class="cls-3" d="M236.01,207.16c2.36-1.23,4.72-2.46,7.07-3.7"/>
                          <path class="cls-3" d="M222.08,214.28c2.33-1.17,4.66-2.36,6.98-3.54"/>
                          <path class="cls-3" d="M209.38,219.84c2.14-.87,4.27-1.77,6.39-2.7"/>
                          <path class="cls-3" d="M197.84,224.15c1.7-.58,3.4-1.18,5.08-1.8"/>
                          <path class="cls-3" d="M182.36,231.28c3.05-1.42,6.11-2.83,9.17-4.23"/>
                          <path class="cls-3" d="M168.8,236.72c2.39-.93,4.78-1.87,7.16-2.83"/>
                          <path class="cls-3" d="M157.13,241.17c1.71-.63,3.42-1.27,5.12-1.91"/>
                          <path class="cls-3" d="M145,245.65c1.91-.68,3.82-1.38,5.72-2.08"/>
                          <path class="cls-3" d="M131.98,250.06c2.18-.71,4.36-1.43,6.53-2.17"/>
                          <path class="cls-3" d="M118.64,253.9c2.35-.64,4.7-1.3,7.04-1.97"/>
                          <path class="cls-3" d="M104.06,258.28c2.37-1.94,4.93-2.25,7.84-2.85"/>
                          <path class="cls-3" d="M32.89,273.68c22.13-4.91,43.2-8.39,64.9-13.75"/>
                          <path class="cls-4" d="M502.81,66.36c2.62-1.55,4.97-3.56,6.63-6.11"/>
                          <path class="cls-4" d="M486.9,73.11c2.97-1.32,6.06-2.36,9.09-3.54"/>
                          <path class="cls-4" d="M473.41,79.99c2.2-1.24,4.43-2.45,6.68-3.61"/>
                          <path class="cls-4" d="M462.2,86.59c1.53-.92,3.06-1.84,4.59-2.75"/>
                          <path class="cls-4" d="M450.33,93.69c1.77-1.03,3.53-2.08,5.28-3.14"/>
                          <path class="cls-4" d="M438.68,100.13c1.67-.86,3.32-1.74,4.97-2.64"/>
                          <path class="cls-4" d="M427.03,106.57c1.74-.92,3.48-1.86,5.2-2.81"/>
                          <path class="cls-4" d="M413.73,113.47c2.11-1.08,4.21-2.16,6.32-3.25"/>
                          <path class="cls-4" d="M401.08,119.96c2.1-1.09,4.21-2.17,6.32-3.25"/>
                          <path class="cls-4" d="M389.67,125.92c1.66-.88,3.32-1.75,4.98-2.62"/>
                          <path class="cls-4" d="M376.94,132.84c2-1.11,4-2.22,6.02-3.31"/>
                          <path class="cls-4" d="M364.91,138.74c1.9-.92,3.79-1.84,5.68-2.77"/>
                          <path class="cls-4" d="M351.42,145.37c2.12-1.06,4.25-2.12,6.38-3.16"/>
                          <path class="cls-4" d="M337.76,152.29c2.39-1.23,4.78-2.45,7.18-3.66"/>
                          <path class="cls-4" d="M324.27,159.27c2.36-1.23,4.73-2.45,7.1-3.68"/>
                          <path class="cls-4" d="M311.75,165.8c2.08-1.09,4.17-2.18,6.26-3.27"/>
                          <path class="cls-4" d="M301.1,171.9c1.31-.79,2.63-1.57,3.96-2.33"/>
                          <path class="cls-4" d="M289.01,178.37c1.66-.89,3.32-1.78,4.97-2.67"/>
                          <path class="cls-4" d="M275.81,185.5c2.08-1.13,4.17-2.26,6.26-3.38"/>
                          <path class="cls-4" d="M261.68,193.28c2.59-1.43,5.18-2.86,7.77-4.29"/>
                          <path class="cls-4" d="M249.43,200.09c2.04-1.14,4.08-2.27,6.12-3.41"/>
                          <path class="cls-4" d="M236.01,207.16c2.36-1.23,4.72-2.46,7.07-3.7"/>
                          <path class="cls-4" d="M222.08,214.28c2.33-1.17,4.66-2.36,6.98-3.54"/>
                          <path class="cls-4" d="M209.38,219.84c2.14-.87,4.27-1.77,6.39-2.7"/>
                          <path class="cls-4" d="M197.84,224.15c1.7-.58,3.4-1.18,5.08-1.8"/>
                          <path class="cls-4" d="M182.36,231.28c3.05-1.42,6.11-2.83,9.17-4.23"/>
                          <path class="cls-4" d="M168.8,236.72c2.39-.93,4.78-1.87,7.16-2.83"/>
                          <path class="cls-4" d="M157.13,241.17c1.71-.63,3.42-1.27,5.12-1.91"/>
                          <path class="cls-4" d="M145,245.65c1.91-.68,3.82-1.38,5.72-2.08"/>
                          <path class="cls-4" d="M131.98,250.06c2.18-.71,4.36-1.43,6.53-2.17"/>
                          <path class="cls-4" d="M118.64,253.9c2.35-.64,4.7-1.3,7.04-1.97"/>
                          <path class="cls-4" d="M104.06,258.28c2.37-1.94,4.93-2.25,7.84-2.85"/>
                          <path class="cls-4" d="M32.89,273.68c22.13-4.91,43.2-8.39,64.9-13.75"/>
                        </g>
                      </g>
                    </g>
                    <g id="x-grid-svg">
                      <g id="x-tick-labels-svg_date-axis-svg_grid-x-svg_datawrapper-dFiok-17uus4s-svg_svelte-nmad35-svg" data-name="x-tick-labels-svg date-axis-svg grid-x-svg datawrapper-dFiok-17uus4s-svg svelte-nmad35-svg">
                        <g class="cls-10">
                          <text class="cls-9" transform="translate(20.85 357.1) scale(1.02 1)"><tspan x="0" y="0">2023</tspan></text>
                        </g>
                        <g class="cls-10">
                          <text class="cls-9" transform="translate(88.88 357.1) scale(1.02 1)"><tspan x="0" y="0">2024</tspan></text>
                        </g>
                        <g class="cls-10">
                          <text class="cls-9" transform="translate(157.09 357.1) scale(1.02 1)"><tspan x="0" y="0">2025</tspan></text>
                        </g>
                        <g class="cls-10">
                          <text class="cls-9" transform="translate(225.12 357.1) scale(1.02 1)"><tspan x="0" y="0">2026</tspan></text>
                        </g>
                        <g class="cls-10">
                          <text class="cls-9" transform="translate(293.14 357.1) scale(1.02 1)"><tspan x="0" y="0">2027</tspan></text>
                        </g>
                        <g class="cls-10">
                          <text class="cls-9" transform="translate(361.17 357.1) scale(1.02 1)"><tspan x="0" y="0">2028</tspan></text>
                        </g>
                        <g class="cls-10">
                          <text class="cls-9" transform="translate(429.38 357.1) scale(1.02 1)"><tspan x="0" y="0">2029</tspan></text>
                        </g>
                        <g class="cls-10">
                          <text class="cls-9" transform="translate(497.41 357.1) scale(1.02 1)"><tspan x="0" y="0">2030</tspan></text>
                        </g>
                      </g>
                    </g>
                    <g id="y-grid-svg-2" data-name="y-grid-svg">
                      <g id="y-tick-labels-svg_number-axis-svg_grid-y-svg_datawrapper-dFiok-1fzbge6-svg" data-name="y-tick-labels-svg number-axis-svg grid-y-svg datawrapper-dFiok-1fzbge6-svg">
                        <g class="cls-10">
                          <text class="cls-7" transform="translate(13.35 345.58) scale(1.02 1)"><tspan x="0" y="0">0</tspan></text>
                        </g>
                        <g class="cls-10">
                          <text class="cls-7" transform="translate(1.31 299.08) scale(1.02 1)"><tspan x="0" y="0">100</tspan></text>
                        </g>
                        <g class="cls-10">
                          <text class="cls-7" transform="translate(1.31 252.58) scale(1.02 1)"><tspan x="0" y="0">200</tspan></text>
                        </g>
                        <g class="cls-10">
                          <text class="cls-7" transform="translate(1.31 206.09) scale(1.02 1)"><tspan x="0" y="0">300</tspan></text>
                        </g>
                        <g class="cls-10">
                          <text class="cls-7" transform="translate(1.31 159.59) scale(1.02 1)"><tspan x="0" y="0">400</tspan></text>
                        </g>
                        <g class="cls-10">
                          <text class="cls-7" transform="translate(1.31 113.09) scale(1.02 1)"><tspan x="0" y="0">500</tspan></text>
                        </g>
                        <g class="cls-10">
                          <text class="cls-7" transform="translate(1.31 66.59) scale(1.02 1)"><tspan x="0" y="0">600</tspan></text>
                        </g>
                      </g>
                      <g id="y-base-lines-svg_grid-y-svg_datawrapper-dFiok-1ro4gsw-svg" data-name="y-base-lines-svg grid-y-svg datawrapper-dFiok-1ro4gsw-svg">
                        <line class="cls-5" x1="518.46" y1="342.04" x2="23.87" y2="342.04"/>
                      </g>
                    </g>
                  </g>
                </g>
                <g id="TWh" class="cls-10">
                  <text class="cls-6" transform="translate(518.44 64.69) scale(1.02 1)"><tspan x="0" y="0">TWh</tspan></text>
                </g>
              </g>
            </g>
          </g>
          <g id="container-svg_container-footer-svg_datawrapper-dFiok-1la8dcw-svg" data-name="container-svg container-footer-svg datawrapper-dFiok-1la8dcw-svg">
            <g class="cls-10">
              <text class="cls-8" transform="translate(0 387.23) scale(1.02 1)"><tspan x="0" y="0">Chart:</tspan></text>
              <text class="cls-8" transform="translate(29.47 387.23) scale(1.02 1)"><tspan x="0" y="0">Lucia de la</tspan><tspan class="cls-15" x="47.15" y="0"> </tspan><tspan class="cls-14" x="49.68" y="0">T</tspan><tspan x="54.55" y="0">orre</tspan></text>
              <text class="cls-8" transform="translate(105.09 387.23) scale(1.02 1)"><tspan x="0" y="0">•</tspan></text>
              <text class="cls-8" transform="translate(111.03 387.23) scale(1.02 1)"><tspan x="0" y="0">Source:</tspan></text>
              <text class="cls-8" transform="translate(147.68 387.23) scale(1.02 1)"><tspan class="cls-16" x="0" y="0">V</tspan><tspan x="6.32" y="0">isual Capitalist/McKinsey</tspan></text>
              <text class="cls-8" transform="translate(266.28 387.23) scale(1.02 1)"><tspan x="0" y="0">•</tspan></text>
              <text class="cls-8" transform="translate(272.22 387.23) scale(1.02 1)"><tspan x="0" y="0">Created with</tspan></text>
              <text class="cls-8" transform="translate(330.37 387.23) scale(1.02 1)"><tspan x="0" y="0">Datawrapper</tspan></text>
            </g>
          </g>
        </g>
      </g>
    </g>
    <text class="cls-13" transform="translate(101.89 270.4) scale(1.01 1)"><tspan x="0" y="0">*Predicted values</tspan></text>
  </g>
</svg>