<?xml version="1.0" encoding="UTF-8"?>
<svg id="Layer_2" data-name="Layer 2" xmlns="http://www.w3.org/2000/svg" xmlns:xlink="http://www.w3.org/1999/xlink" viewBox="0 0 178.85 320.19">
  <defs>
    <style>
      .cls-1, .cls-2, .cls-3, .cls-4, .cls-5, .cls-6 {
        fill: none;
      }

      .cls-2 {
        stroke: #e7e7e7;
      }

      .cls-7 {
        font-size: 8.44px;
      }

      .cls-7, .cls-8, .cls-9, .cls-10, .cls-11, .cls-12, .cls-13 {
        isolation: isolate;
      }

      .cls-7, .cls-8, .cls-10, .cls-11, .cls-12, .cls-14 {
        font-family: ArialMT, Arial;
      }

      .cls-7, .cls-10 {
        fill: #181818;
      }

      .cls-8 {
        fill: #747474;
      }

      .cls-8, .cls-10, .cls-12 {
        font-size: 7.24px;
      }

      .cls-3 {
        stroke: #fff;
        stroke-width: 4px;
      }

      .cls-3, .cls-4 {
        stroke-linejoin: round;
      }

      .cls-3, .cls-4, .cls-6 {
        stroke-linecap: round;
      }

      .cls-4, .cls-6 {
        stroke: #c71e1d;
        stroke-width: 2px;
      }

      .cls-11 {
        fill: #888;
        font-size: 6.63px;
      }

      .cls-12 {
        fill: #a2a2a2;
      }

      .cls-5 {
        stroke: #181818;
        stroke-linecap: square;
      }

      .cls-14 {
        font-size: 6px;
      }

      .cls-15 {
        letter-spacing: -.11em;
      }

      .cls-16 {
        letter-spacing: -.02em;
      }

      .cls-13 {
        font-family: Arial-BoldMT, Arial;
        font-size: 13px;
        font-weight: 700;
      }

      .cls-17 {
        letter-spacing: -.06em;
      }

      .cls-18 {
        clip-path: url(#clippath);
      }
    </style>
    <clipPath id="clippath">
      <rect class="cls-1" width="178.85" height="320.19"/>
    </clipPath>
  </defs>
  <g id="ai2html-settings">
    <g class="cls-18">
      <g id="_svelte-dw-svg" data-name="  svelte-dw-svg">
        <g id="container-svg_container-body-svg_datawrapper-dFiok-1gvfeww-svg" data-name="container-svg container-body-svg datawrapper-dFiok-1gvfeww-svg">
          <g id="container-svg_container-bodyTop-svg_datawrapper-dFiok-lmtz6e-svg" data-name="container-svg container-bodyTop-svg datawrapper-dFiok-lmtz6e-svg">
            <g id="container-svg_container-bodyCenter-svg_datawrapper-dFiok-1fgvipr-svg" data-name="container-svg container-bodyCenter-svg datawrapper-dFiok-1fgvipr-svg">
              <g id="container-svg_container-header-svg_datawrapper-dFiok-xp3kt5-svg" data-name="container-svg container-header-svg datawrapper-dFiok-xp3kt5-svg">
                <g class="cls-9">
                  <text class="cls-13" transform="translate(0 13.27) scale(.94 1)"><tspan x="0" y="0">The growing energy demand</tspan><tspan x="0" y="15.6">of</tspan></text>
                  <text class="cls-13" transform="translate(0 28.34) scale(.93 1)"><tspan x="0" y="0" xml:space="preserve">     U.S. Data Centers</tspan></text>
                </g>
                <g class="cls-9">
                  <text class="cls-7" transform="translate(0 44.62) scale(.93 1)"><tspan x="0" y="0">Fuelled by</tspan><tspan class="cls-17" x="38.95" y="0"> </tspan><tspan x="40.83" y="0">AI, data center energy use in the United</tspan></text>
                  <text class="cls-7" transform="translate(0 54.87) scale(.93 1)"><tspan x="0" y="0">States is forecast to quadruple by 2030.</tspan></text>
                </g>
              </g>
              <g id="chart-svg">
                <g id="svg-main-svg">
                  <g id="group-svg">
                    <g id="y-grid-svg">
                      <g id="y-grid-lines-svg_grid-y-svg_datawrapper-dFiok-1mqm0ow-svg" data-name="y-grid-lines-svg grid-y-svg datawrapper-dFiok-1mqm0ow-svg">
                        <line class="cls-2" y1="90.45" x2="176.76" y2="90.45"/>
                        <line class="cls-2" y1="122.11" x2="176.76" y2="122.11"/>
                        <line class="cls-2" y1="153.77" x2="176.76" y2="153.77"/>
                        <line class="cls-2" y1="185.42" x2="176.76" y2="185.42"/>
                        <line class="cls-2" y1="217.08" x2="176.76" y2="217.08"/>
                        <line class="cls-2" y1="248.74" x2="176.76" y2="248.74"/>
                      </g>
                    </g>
                    <g id="lines-svg">
                      <g id="TWh-svg">
                        <g id="TWh-svg-2" data-name="TWh-svg">
                          <path class="cls-3" d="M168.98,91.93c.75-1.12,1.48-2.24,2.19-3.38"/>
                          <path class="cls-3" d="M162.35,101.23c.68-.89,1.35-1.79,2.01-2.69"/>
                          <path class="cls-3" d="M153.45,112.24c1.39-1.63,2.77-3.28,4.12-4.94"/>
                          <path class="cls-3" d="M144.89,121.86c1.02-1.1,2.03-2.21,3.03-3.33"/>
                          <path class="cls-3" d="M135.76,131.55c1.32-1.37,2.63-2.75,3.94-4.13"/>
                          <path class="cls-3" d="M127.82,139.74c.88-.91,1.76-1.82,2.65-2.73"/>
                          <path class="cls-3" d="M119.51,148.36c.87-.91,1.75-1.83,2.62-2.74"/>
                          <path class="cls-3" d="M110.36,157.89c1.23-1.31,2.47-2.61,3.71-3.91"/>
                          <path class="cls-3" d="M101.51,167.79c1.09-1.28,2.2-2.55,3.32-3.81"/>
                          <path class="cls-3" d="M92.84,178.42c1.07-1.38,2.16-2.76,3.26-4.12"/>
                          <path class="cls-3" d="M84.08,188.93c1.29-1.47,2.55-2.96,3.81-4.46"/>
                          <path class="cls-3" d="M76.64,197.06c.9-.93,1.79-1.88,2.68-2.83"/>
                          <path class="cls-3" d="M67.45,205.97c1.59-1.43,3.14-2.89,4.68-4.38"/>
                          <path class="cls-3" d="M58.34,213.54c1.16-.88,2.3-1.78,3.43-2.7"/>
                          <path class="cls-3" d="M48.9,220.05c1.2-.74,2.39-1.51,3.56-2.3"/>
                          <path class="cls-3" d="M39.14,225.42c1.18-.57,2.35-1.17,3.51-1.78"/>
                          <path class="cls-3" d="M29.68,229.39c1.02-.33,2.04-.69,3.04-1.09"/>
                          <path class="cls-3" d="M19.83,233.86l3.5-1.59"/>
                          <path class="cls-4" d="M168.98,91.93c.75-1.12,1.48-2.24,2.19-3.38"/>
                          <path class="cls-4" d="M162.35,101.23c.68-.89,1.35-1.79,2.01-2.69"/>
                          <path class="cls-4" d="M153.45,112.24c1.39-1.63,2.77-3.28,4.12-4.94"/>
                          <path class="cls-4" d="M144.89,121.86c1.02-1.1,2.03-2.21,3.03-3.33"/>
                          <path class="cls-4" d="M135.76,131.55c1.32-1.37,2.63-2.75,3.94-4.13"/>
                          <path class="cls-4" d="M127.82,139.74c.88-.91,1.76-1.82,2.65-2.73"/>
                          <path class="cls-4" d="M119.51,148.36c.87-.91,1.75-1.83,2.62-2.74"/>
                          <path class="cls-4" d="M110.36,157.89c1.23-1.31,2.47-2.61,3.71-3.91"/>
                          <path class="cls-4" d="M101.51,167.79c1.09-1.28,2.2-2.55,3.32-3.81"/>
                          <path class="cls-4" d="M92.84,178.42c1.07-1.38,2.16-2.76,3.26-4.12"/>
                          <path class="cls-4" d="M84.08,188.93c1.29-1.47,2.55-2.96,3.81-4.46"/>
                          <path class="cls-4" d="M76.64,197.06c.9-.93,1.79-1.88,2.68-2.83"/>
                          <path class="cls-4" d="M67.45,205.97c1.59-1.43,3.14-2.89,4.68-4.38"/>
                          <path class="cls-4" d="M58.34,213.54c1.16-.88,2.3-1.78,3.43-2.7"/>
                          <path class="cls-4" d="M48.9,220.05c1.2-.74,2.39-1.51,3.56-2.3"/>
                          <path class="cls-4" d="M39.14,225.42c1.18-.57,2.35-1.17,3.51-1.78"/>
                          <path class="cls-4" d="M29.68,229.39c1.02-.33,2.04-.69,3.04-1.09"/>
                          <path class="cls-4" d="M19.83,233.86l3.5-1.59"/>
                        </g>
                      </g>
                    </g>
                    <g id="x-grid-svg">
                      <g id="x-tick-labels-svg_date-axis-svg_grid-x-svg_datawrapper-dFiok-17uus4s-svg_svelte-nmad35-svg" data-name="x-tick-labels-svg date-axis-svg grid-x-svg datawrapper-dFiok-17uus4s-svg svelte-nmad35-svg">
                        <g class="cls-9">
                          <text class="cls-8" transform="translate(33.97 290.65) scale(.93 1)"><tspan x="0" y="0">2024</tspan></text>
                        </g>
                        <g class="cls-9">
                          <text class="cls-8" transform="translate(77.24 290.65) scale(.93 1)"><tspan x="0" y="0">2026</tspan></text>
                        </g>
                        <g class="cls-9">
                          <text class="cls-8" transform="translate(120.45 290.65) scale(.93 1)"><tspan x="0" y="0">2028</tspan></text>
                        </g>
                        <g class="cls-9">
                          <text class="cls-8" transform="translate(163.71 290.65) scale(.93 1)"><tspan x="0" y="0">2030</tspan></text>
                        </g>
                      </g>
                    </g>
                    <g id="y-grid-svg-2" data-name="y-grid-svg">
                      <g id="y-tick-labels-svg_number-axis-svg_grid-y-svg_datawrapper-dFiok-1fzbge6-svg" data-name="y-tick-labels-svg number-axis-svg grid-y-svg datawrapper-dFiok-1fzbge6-svg">
                        <g class="cls-9">
                          <text class="cls-12" transform="translate(0 277.38) scale(.93 1)"><tspan x="0" y="0">0</tspan></text>
                        </g>
                        <g class="cls-9">
                          <text class="cls-12" transform="translate(0 245.72) scale(.93 1)"><tspan x="0" y="0">100</tspan></text>
                        </g>
                        <g class="cls-9">
                          <text class="cls-12" transform="translate(0 214.07) scale(.93 1)"><tspan x="0" y="0">200</tspan></text>
                        </g>
                        <g class="cls-9">
                          <text class="cls-12" transform="translate(0 182.41) scale(.93 1)"><tspan x="0" y="0">300</tspan></text>
                        </g>
                        <g class="cls-9">
                          <text class="cls-12" transform="translate(0 150.75) scale(.93 1)"><tspan x="0" y="0">400</tspan></text>
                        </g>
                        <g class="cls-9">
                          <text class="cls-12" transform="translate(0 119.09) scale(.93 1)"><tspan x="0" y="0">500</tspan></text>
                        </g>
                        <g class="cls-9">
                          <text class="cls-12" transform="translate(0 87.44) scale(.93 1)"><tspan x="0" y="0">600</tspan></text>
                        </g>
                      </g>
                      <g id="y-base-lines-svg_grid-y-svg_datawrapper-dFiok-1ro4gsw-svg" data-name="y-base-lines-svg grid-y-svg datawrapper-dFiok-1ro4gsw-svg">
                        <line class="cls-5" x1="176.76" y1="280.4" y2="280.4"/>
                      </g>
                    </g>
                  </g>
                </g>
                <g class="cls-9">
                  <text class="cls-10" transform="translate(10.62 71.51) scale(.93 1)"><tspan x="0" y="0">TWh</tspan></text>
                </g>
                <g id="legend-color-svg">
                  <line class="cls-6" x1=".56" y1="68.74" x2="8.38" y2="68.74"/>
                </g>
              </g>
            </g>
          </g>
          <g id="container-svg_container-footer-svg_datawrapper-dFiok-1la8dcw-svg" data-name="container-svg container-footer-svg datawrapper-dFiok-1la8dcw-svg">
            <g class="cls-9">
              <text class="cls-11" transform="translate(0 311.15) scale(.93 1)"><tspan x="0" y="0">Chart:</tspan></text>
              <text class="cls-11" transform="translate(18.27 311.15) scale(.93 1)"><tspan x="0" y="0">Lucia de la</tspan><tspan class="cls-16" x="32.08" y="0"> </tspan><tspan class="cls-15" x="33.81" y="0">T</tspan><tspan x="37.12" y="0">orre</tspan></text>
              <text class="cls-11" transform="translate(65.14 311.15) scale(.93 1)"><tspan x="0" y="0">•</tspan></text>
              <text class="cls-11" transform="translate(68.83 311.15) scale(.93 1)"><tspan x="0" y="0">Source:</tspan></text>
              <text class="cls-11" transform="translate(91.54 311.15) scale(.93 1)"><tspan class="cls-16" x="0" y="0">V</tspan><tspan x="4.3" y="0">isual Capitalist/McKinsey</tspan></text>
              <text class="cls-11" transform="translate(165.06 311.15) scale(.93 1)"><tspan x="0" y="0">•</tspan></text>
              <text class="cls-11" transform="translate(0 318.99) scale(.93 1)"><tspan x="0" y="0">Created with</tspan></text>
              <text class="cls-11" transform="translate(36.04 318.99) scale(.93 1)"><tspan x="0" y="0">Datawrapper</tspan></text>
            </g>
          </g>
        </g>
      </g>
    </g>
    <text class="cls-14" transform="translate(82.95 201.12)"><tspan x="0" y="0">*Predicted values</tspan></text>
  </g>
</svg>