<?xml version="1.0" encoding="UTF-8"?>
<svg id="Layer_2" data-name="Layer 2" xmlns="http://www.w3.org/2000/svg" viewBox="0 0 610 425">
  <defs>
    <style>
      .cls-1 {
        font-family: Verdana, Verdana;
      }

      .cls-1, .cls-2, .cls-3, .cls-4, .cls-5 {
        isolation: isolate;
      }

      .cls-1, .cls-4, .cls-5 {
        font-size: 8.83px;
      }

      .cls-6 {
        fill: #ab63fa;
      }

      .cls-7 {
        fill: #00cc96;
      }

      .cls-2 {
        font-family: Arial-BoldMT, Arial;
        font-size: 16.69px;
        font-weight: 700;
      }

      .cls-8 {
        fill: #ef553b;
      }

      .cls-9 {
        fill: #d3d3d3;
        stroke: #000;
        stroke-width: .5px;
      }

      .cls-10 {
        fill: #fff;
      }

      .cls-11 {
        fill: #19d3f3;
      }

      .cls-12 {
        fill: #636efa;
      }

      .cls-13 {
        fill: #ff6692;
      }

      .cls-4, .cls-5 {
        font-family: ArialMT, Arial;
      }

      .cls-14 {
        fill: #ffa15a;
      }

      .cls-5 {
        letter-spacing: -.02em;
      }
    </style>
  </defs>
  <g id="ai2html-settings">
    <g id="ai2html-settings-2" data-name="ai2html-settings">
      <rect class="cls-10" width="610" height="425"/>
      <g>
        <g>
          <path class="cls-12" d="M97.38,107.72c217.85,0,217.85,22.06,435.71,22.06v27.58c-217.85,0-217.85-22.06-435.71-22.06,0,0,0-27.58,0-27.58Z"/>
          <path class="cls-8" d="M97.38,179.41c217.85,0,217.85-22.06,435.71-22.06v22.06c-217.85,0-217.85,22.06-435.71,22.06,0,0,0-22.06,0-22.06Z"/>
          <path class="cls-7" d="M97.38,80.14c217.85,0,217.85,33.09,435.71,33.09v16.54c-217.85,0-217.85-33.09-435.71-33.09,0,0,0-16.54,0-16.54Z"/>
          <path class="cls-12" d="M97.38,135.29c217.85,0,217.85,55.15,435.71,55.15v33.09c-217.85,0-217.85-55.15-435.71-55.15,0,0,0-33.09,0-33.09Z"/>
          <path class="cls-6" d="M97.38,240.09c217.85,0,217.85-16.54,435.71-16.54v11.03c-217.85,0-217.85,16.54-435.71,16.54,0,0,0-11.03,0-11.03Z"/>
          <path class="cls-8" d="M97.38,201.47c217.85,0,217.85,44.13,435.71,44.13v27.58c-217.85,0-217.85-44.13-435.71-44.13,0,0,0-27.58,0-27.58Z"/>
          <path class="cls-14" d="M97.38,262.16c217.85,0,217.85,11.03,435.71,11.03v22.06c-217.85,0-217.85-11.03-435.71-11.03v-22.06h0Z"/>
          <path class="cls-11" d="M97.38,295.25c217.85,0,217.85,11.03,435.71,11.03v44.13c-217.85,0-217.85-11.03-435.71-11.03v-44.13h0Z"/>
          <path class="cls-13" d="M97.38,350.41h435.71v38.61H97.38v-38.61Z"/>
        </g>
        <g>
          <g>
            <rect class="cls-9" x="79.96" y="107.72" width="17.42" height="60.67"/>
            <g class="cls-3">
              <text class="cls-4" transform="translate(100.22 141.14) scale(1.19 1)"><tspan x="0" y="0">Canada</tspan></text>
            </g>
          </g>
          <g>
            <rect class="cls-9" x="79.96" y="179.41" width="17.42" height="49.64"/>
            <g class="cls-3">
              <text class="cls-4" transform="translate(100.22 207.33) scale(1.19 1)"><tspan x="0" y="0">Mexico</tspan></text>
            </g>
          </g>
          <g>
            <rect class="cls-9" x="79.96" y="80.14" width="17.42" height="16.54"/>
            <g class="cls-3">
              <text class="cls-4" transform="translate(100.22 91.5) scale(1.19 1)"><tspan x="0" y="0">Brazil</tspan></text>
            </g>
          </g>
          <g>
            <rect class="cls-9" x="79.96" y="240.09" width="17.42" height="11.03"/>
            <g class="cls-3">
              <text class="cls-1" transform="translate(100.22 248.69) scale(1.19 1)"><tspan x="0" y="0">A</tspan></text>
              <text class="cls-1" transform="translate(107.33 248.69) scale(1.19 1)"><tspan x="0" y="0">ust</tspan></text>
              <text class="cls-1" transform="translate(123.57 248.69) scale(1.19 1)"><tspan x="0" y="0">r</tspan></text>
              <text class="cls-1" transform="translate(127.87 248.69) scale(1.19 1)"><tspan x="0" y="0">alia</tspan></text>
            </g>
          </g>
          <g>
            <rect class="cls-9" x="79.96" y="262.16" width="17.42" height="22.06"/>
            <g class="cls-3">
              <text class="cls-4" transform="translate(100.22 276.27) scale(1.19 1)"><tspan x="0" y="0">Chile</tspan></text>
            </g>
          </g>
          <g>
            <rect class="cls-9" x="79.96" y="295.25" width="17.42" height="44.13"/>
            <g class="cls-3">
              <text class="cls-5" transform="translate(100.22 320.4) scale(1.19 1)"><tspan x="0" y="0">T</tspan></text>
              <text class="cls-4" transform="translate(105.46 320.4) scale(1.19 1)"><tspan x="0" y="0">aiwan</tspan></text>
            </g>
          </g>
          <g>
            <rect class="cls-9" x="79.96" y="350.41" width="17.42" height="38.61"/>
            <g class="cls-3">
              <text class="cls-4" transform="translate(100.22 372.8) scale(1.19 1)"><tspan x="0" y="0">South Korea</tspan></text>
            </g>
          </g>
          <g>
            <rect class="cls-9" x="533.09" y="113.22" width="17.42" height="66.19"/>
            <g class="cls-3">
              <text class="cls-4" transform="translate(503.66 149.41) scale(1.19 1)"><tspan x="0" y="0">Steel</tspan></text>
            </g>
          </g>
          <g>
            <rect class="cls-9" x="533.09" y="190.45" width="17.42" height="44.13"/>
            <g class="cls-3">
              <text class="cls-4" transform="translate(477.18 215.6) scale(1.19 1)"><tspan x="0" y="0">Aluminum</tspan></text>
            </g>
          </g>
          <g>
            <rect class="cls-9" x="533.09" y="245.6" width="17.42" height="49.64"/>
            <g class="cls-3">
              <text class="cls-4" transform="translate(492.9 273.52) scale(1.19 1)"><tspan x="0" y="0">Copper</tspan></text>
            </g>
          </g>
          <g>
            <rect class="cls-9" x="533.09" y="306.28" width="17.42" height="82.73"/>
            <g class="cls-3">
              <text class="cls-4" transform="translate(446.48 350.73) scale(1.19 1)"><tspan x="0" y="0">Semiconductors</tspan></text>
            </g>
          </g>
        </g>
      </g>
      <g class="cls-3">
        <text class="cls-2" transform="translate(40.75 54.69) scale(.89 1)"><tspan x="0" y="0">Where Do the Construction Materials for Data Centers in the U.S. Come From?</tspan></text>
      </g>
    </g>
  </g>
</svg>