<?xml version="1.0" encoding="UTF-8"?>
<svg id="Layer_2" data-name="Layer 2" xmlns="http://www.w3.org/2000/svg" viewBox="0 0 476.52 328.82">
  <defs>
    <style>
      .cls-1 {
        fill: #ab63fa;
      }

      .cls-2 {
        fill: #00cc96;
      }

      .cls-3 {
        fill: #ef553b;
      }

      .cls-4 {
        letter-spacing: 0em;
      }

      .cls-5 {
        fill: #d3d3d3;
        stroke: #000;
        stroke-width: .5px;
      }

      .cls-6 {
        fill: #fff;
      }

      .cls-7 {
        font-family: Verdana, Verdana;
      }

      .cls-7, .cls-8, .cls-9 {
        isolation: isolate;
      }

      .cls-7, .cls-9 {
        font-size: 6.83px;
      }

      .cls-10 {
        fill: #19d3f3;
      }

      .cls-8 {
        font-family: Arial-BoldMT, Arial;
        font-size: 12.91px;
        font-weight: 700;
      }

      .cls-11 {
        fill: #636efa;
      }

      .cls-9 {
        font-family: ArialMT, Arial;
      }

      .cls-12 {
        fill: #ff6692;
      }

      .cls-13 {
        fill: #ffa15a;
      }

      .cls-14 {
        letter-spacing: -.11em;
      }

      .cls-15 {
        letter-spacing: -.02em;
      }

      .cls-16 {
        letter-spacing: 0em;
      }
    </style>
  </defs>
  <g id="ai2html-settings">
    <rect class="cls-6" width="476.52" height="328.82"/>
    <g>
      <g>
        <path class="cls-11" d="M76.07,83.34c170.18,0,170.18,17.07,340.37,17.07v21.34c-170.18,0-170.18-17.07-340.37-17.07v-21.34Z"/>
        <path class="cls-3" d="M76.07,138.81c170.18,0,170.18-17.07,340.37-17.07v17.07c-170.18,0-170.18,17.07-340.37,17.07v-17.07Z"/>
        <path class="cls-2" d="M76.07,62c170.18,0,170.18,25.6,340.37,25.6v12.8c-170.18,0-170.18-25.6-340.37-25.6v-12.8Z"/>
        <path class="cls-11" d="M76.07,104.67c170.18,0,170.18,42.67,340.37,42.67v25.6c-170.18,0-170.18-42.67-340.37-42.67v-25.6Z"/>
        <path class="cls-1" d="M76.07,185.76c170.18,0,170.18-12.8,340.37-12.8v8.53c-170.18,0-170.18,12.8-340.37,12.8v-8.53Z"/>
        <path class="cls-3" d="M76.07,155.88c170.18,0,170.18,34.14,340.37,34.14v21.34c-170.18,0-170.18-34.14-340.37-34.14v-21.34Z"/>
        <path class="cls-13" d="M76.07,202.83c170.18,0,170.18,8.53,340.37,8.53v17.07c-170.18,0-170.18-8.53-340.37-8.53v-17.07Z"/>
        <path class="cls-10" d="M76.07,228.43c170.18,0,170.18,8.53,340.37,8.53v34.14c-170.18,0-170.18-8.53-340.37-8.53v-34.14Z"/>
        <path class="cls-12" d="M76.07,271.11h340.37v29.87H76.07v-29.87Z"/>
      </g>
      <g>
        <g>
          <rect class="cls-5" x="62.46" y="83.34" width="13.61" height="46.94"/>
          <text class="cls-9" transform="translate(78.29 109.2) scale(1.2 1)"><tspan x="0" y="0">Canada</tspan></text>
        </g>
        <g>
          <rect class="cls-5" x="62.46" y="138.81" width="13.61" height="38.41"/>
          <text class="cls-9" transform="translate(78.29 160.41) scale(1.2 1)"><tspan x="0" y="0">Mexico</tspan></text>
        </g>
        <g>
          <rect class="cls-5" x="62.46" y="62" width="13.61" height="12.8"/>
          <text class="cls-9" transform="translate(78.29 70.79) scale(1.2 1)"><tspan x="0" y="0">Brazil</tspan></text>
        </g>
        <g>
          <rect class="cls-5" x="62.46" y="185.76" width="13.61" height="8.53"/>
          <text class="cls-7" transform="translate(78.29 192.41) scale(1.2 1)"><tspan class="cls-16" x="0" y="0">A</tspan><tspan class="cls-4" x="4.63" y="0">ust</tspan><tspan class="cls-15" x="15.2" y="0">r</tspan><tspan x="18" y="0">alia</tspan></text>
        </g>
        <g>
          <rect class="cls-5" x="62.46" y="202.83" width="13.61" height="17.07"/>
          <text class="cls-9" transform="translate(78.29 213.75) scale(1.2 1)"><tspan x="0" y="0">Chile</tspan></text>
        </g>
        <g>
          <rect class="cls-5" x="62.46" y="228.43" width="13.61" height="34.14"/>
          <text class="cls-9" transform="translate(78.29 247.89) scale(1.2 1)"><tspan class="cls-14" x="0" y="0">T</tspan><tspan x="3.41" y="0">aiwan</tspan></text>
        </g>
        <g>
          <rect class="cls-5" x="62.46" y="271.11" width="13.61" height="29.87"/>
          <text class="cls-9" transform="translate(78.29 288.43) scale(1.2 1)"><tspan x="0" y="0">South Korea</tspan></text>
        </g>
        <g>
          <rect class="cls-5" x="416.44" y="87.6" width="13.61" height="51.21"/>
          <text class="cls-9" transform="translate(393.45 115.6) scale(1.2 1)"><tspan x="0" y="0">Steel</tspan></text>
        </g>
        <g>
          <rect class="cls-5" x="416.44" y="147.35" width="13.61" height="34.14"/>
          <text class="cls-9" transform="translate(372.76 166.81) scale(1.2 1)"><tspan x="0" y="0">Aluminum</tspan></text>
        </g>
        <g>
          <rect class="cls-5" x="416.44" y="190.02" width="13.61" height="38.41"/>
          <text class="cls-9" transform="translate(385.04 211.62) scale(1.2 1)"><tspan x="0" y="0">Copper</tspan></text>
        </g>
        <g>
          <rect class="cls-5" x="416.44" y="236.97" width="13.61" height="64.01"/>
          <text class="cls-9" transform="translate(348.78 271.36) scale(1.2 1)"><tspan x="0" y="0">Semiconductors</tspan></text>
        </g>
      </g>
    </g>
    <text class="cls-8" transform="translate(31.83 42.31) scale(.9 1)"><tspan x="0" y="0">Where Do the Construction Materials for Data Centers in the U.S. Come From?</tspan></text>
  </g>
</svg>