<?xml version="1.0" encoding="UTF-8"?>
<svg id="Layer_2" data-name="Layer 2" xmlns="http://www.w3.org/2000/svg" viewBox="0 0 375 491">
  <defs>
    <style>
      .cls-1 {
        fill: #ab63fa;
      }

      .cls-2 {
        fill: #00cc96;
      }

      .cls-3 {
        fill: #ef553b;
      }

      .cls-4 {
        font-family: ArialMT, Arial;
        font-size: 7.93px;
      }

      .cls-4, .cls-5 {
        isolation: isolate;
      }

      .cls-5 {
        font-family: Arial-BoldMT, Arial;
        font-size: 15px;
        font-weight: 700;
      }

      .cls-6 {
        fill: #d3d3d3;
        stroke: #000;
        stroke-width: .5px;
      }

      .cls-7 {
        fill: #fff;
      }

      .cls-8 {
        fill: #19d3f3;
      }

      .cls-9 {
        letter-spacing: 0em;
      }

      .cls-10 {
        fill: #636efa;
      }

      .cls-11 {
        fill: #ff6692;
      }

      .cls-12 {
        fill: #ffa15a;
      }

      .cls-13 {
        letter-spacing: -.11em;
      }
    </style>
  </defs>
  <g id="ai2html-settings">
    <rect class="cls-7" width="375" height="491"/>
    <g>
      <g>
        <path class="cls-10" d="M125,152.04c62.5,0,62.5,16.34,125,16.34v18.13c-62.5,0-62.5-16.34-125-16.34v-18.13Z"/>
        <path class="cls-3" d="M125,210.35c62.5,0,62.5-23.83,125-23.83v14.51c-62.5,0-62.5,23.83-125,23.83v-14.51Z"/>
        <path class="cls-2" d="M125,122.75c62.5,0,62.5,34.76,125,34.76v10.88c-62.5,0-62.5-34.76-125-34.76v-10.88Z"/>
        <path class="cls-10" d="M125,170.18c62.5,0,62.5,49.26,125,49.26v21.76c-62.5,0-62.5-49.26-125-49.26v-21.76Z"/>
        <path class="cls-1" d="M125,261.4c62.5,0,62.5-20.2,125-20.2v7.25c-62.5,0-62.5,20.2-125,20.2v-7.25Z"/>
        <path class="cls-3" d="M125,224.86c62.5,0,62.5,42.01,125,42.01v18.13c-62.5,0-62.5-42.01-125-42.01v-18.13Z"/>
        <path class="cls-12" d="M125,287.07c62.5,0,62.5-2.07,125-2.07v14.51c-62.5,0-62.5,2.07-125,2.07v-14.51Z"/>
        <path class="cls-8" d="M125,319.99c62.5,0,62.5,8.59,125,8.59v29.01c-62.5,0-62.5-8.59-125-8.59v-29.01Z"/>
        <path class="cls-11" d="M125,367.41c62.5,0,62.5-9.82,125-9.82v25.39c-62.5,0-62.5,9.82-125,9.82v-25.39Z"/>
      </g>
      <g>
        <rect class="cls-6" x="100" y="152.04" width="25" height="39.89"/>
        <rect class="cls-6" x="100" y="210.35" width="25" height="32.64"/>
        <rect class="cls-6" x="100" y="122.75" width="25" height="10.88"/>
        <rect class="cls-6" x="100" y="261.4" width="25" height="7.25"/>
        <rect class="cls-6" x="100" y="287.07" width="25" height="14.51"/>
        <rect class="cls-6" x="100" y="319.99" width="25" height="29.01"/>
        <rect class="cls-6" x="100" y="367.41" width="25" height="25.39"/>
        <rect class="cls-6" x="250" y="157.51" width="25" height="43.52"/>
        <rect class="cls-6" x="250" y="219.44" width="25" height="29.01"/>
        <rect class="cls-6" x="250" y="266.86" width="25" height="32.64"/>
        <rect class="cls-6" x="250" y="328.58" width="25" height="54.4"/>
      </g>
    </g>
    <text class="cls-5" transform="translate(63.29 74.48) scale(.92 1)"><tspan x="0" y="0">Where Do the Construction Materials for</tspan><tspan x="0" y="18">Data Centers in the U.S. Come From?</tspan></text>
    <text class="cls-4" transform="translate(67.7 131.26) scale(1.23 1)"><tspan x="0" y="0">Brazil</tspan></text>
    <text class="cls-4" transform="translate(62.88 175.62) scale(1.23 1)"><tspan x="0" y="0">Canada</tspan></text>
    <text class="cls-4" transform="translate(64.33 228.85) scale(1.23 1)"><tspan x="0" y="0">Mexico</tspan></text>
    <text class="cls-4" transform="translate(58.64 267.05) scale(1.23 1)"><tspan x="0" y="0">Australia</tspan></text>
    <text class="cls-4" transform="translate(71.88 296.1) scale(1.23 1)"><tspan x="0" y="0">Chile</tspan></text>
    <text class="cls-4" transform="translate(64.54 339.26) scale(1.23 1)"><tspan class="cls-13" x="0" y="0">T</tspan><tspan class="cls-9" x="3.97" y="0">aiwan</tspan></text>
    <text class="cls-4" transform="translate(68.41 377.6) scale(1.23 1)"><tspan x="0" y="0">South</tspan><tspan x="0" y="9.52">Korea</tspan></text>
    <text class="cls-4" transform="translate(277.87 182.3) scale(1.23 1)"><tspan x="0" y="0">Steel</tspan></text>
    <text class="cls-4" transform="translate(278.3 237.45) scale(1.23 1)"><tspan x="0" y="0">Aluminum</tspan></text>
    <text class="cls-4" transform="translate(280.93 287.4) scale(1.23 1)"><tspan x="0" y="0">Copper</tspan></text>
    <text class="cls-4" transform="translate(281.27 360.1) scale(1.23 1)"><tspan x="0" y="0">Semiconductors</tspan></text>
  </g>
</svg>